<svg xmlns="http://www.w3.org/2000/svg" width="38" height="37.254" viewBox="0 0 38 37.254">
  <path id="Path_25" data-name="Path 25" d="M0,18.627A18.367,18.367,0,0,0,3.2,28.975a18.924,18.924,0,0,0,8.527,6.861A19.354,19.354,0,0,0,22.707,36.9a19.121,19.121,0,0,0,9.728-5.1,18.516,18.516,0,0,0,5.2-9.537A18.287,18.287,0,0,0,36.554,11.5a18.712,18.712,0,0,0-7-8.359A19.29,19.29,0,0,0,5.565,5.456,18.443,18.443,0,0,0,0,18.627ZM8.143,17.3H24.632l-7.573-7.46L19,7.983,29.857,18.627,19,29.271l-1.941-1.9,7.573-7.415H8.143Z" fill="#8f002c"/>
</svg>
