<svg xmlns="http://www.w3.org/2000/svg" width="50" height="47.761" viewBox="0 0 50 47.761">
  <path id="Path_20" data-name="Path 20" d="M24.993,15.917a8.174,8.174,0,0,0-8.337,7.964,8.174,8.174,0,0,0,8.337,7.964A8.174,8.174,0,0,0,33.33,23.88,8.174,8.174,0,0,0,24.993,15.917ZM50,23.88c0-3.3.031-6.566-.163-9.857C49.641,10.2,48.728,6.806,45.8,4.01S39.321.342,35.319.157C31.867-.028,28.445,0,25,0S18.126-.028,14.68.157C10.678.342,7.125,1.215,4.2,4.01S.358,10.2.164,14.023C-.029,17.321,0,20.589,0,23.88s-.031,6.566.163,9.857C.358,37.561,1.271,40.954,4.2,43.75S10.678,47.418,14.68,47.6c3.452.185,6.873.155,10.319.155s6.873.03,10.319-.155c4-.185,7.555-1.057,10.482-3.853s3.84-6.189,4.034-10.013C50.035,30.446,50,27.178,50,23.88Zm-25,12.253A12.532,12.532,0,0,1,12.166,23.88,12.532,12.532,0,0,1,24.993,11.627,12.532,12.532,0,0,1,37.82,23.88,12.532,12.532,0,0,1,24.993,36.133ZM38.346,13.987a2.927,2.927,0,0,1-3-2.862,3,3,0,0,1,5.991,0,2.747,2.747,0,0,1-.227,1.1,2.853,2.853,0,0,1-.649.929,3,3,0,0,1-.972.62A3.113,3.113,0,0,1,38.346,13.987Z" fill="#4c001a"/>
</svg>
