<svg xmlns="http://www.w3.org/2000/svg" width="50" height="47.761" viewBox="0 0 50 47.761">
  <path id="Path_21" data-name="Path 21" d="M0,3.421A3.553,3.553,0,0,1,3.672,0H46.328A3.553,3.553,0,0,1,50,3.421V44.34a3.553,3.553,0,0,1-3.672,3.421H3.672A3.553,3.553,0,0,1,0,44.34ZM15.447,39.982V18.415h-7.5V39.982ZM11.7,15.469c2.616,0,4.244-1.654,4.244-3.725-.047-2.116-1.625-3.725-4.194-3.725S7.5,9.63,7.5,11.743c0,2.072,1.628,3.725,4.147,3.725ZM27.034,39.982V27.937a4.665,4.665,0,0,1,.25-1.749,4.09,4.09,0,0,1,3.85-2.621c2.716,0,3.8,1.976,3.8,4.878V39.982h7.5V27.612c0-6.627-3.7-9.707-8.638-9.707a7.516,7.516,0,0,0-6.766,3.561v.075h-.05l.05-.075V18.415h-7.5c.094,2.024,0,21.567,0,21.567Z" fill="#4d0118"/>
</svg>
