<svg xmlns="http://www.w3.org/2000/svg" width="50" height="47.761" viewBox="0 0 50 47.761">
  <path id="Path_18" data-name="Path 18" d="M25,0C11.194,0,0,10.693,0,23.88s11.194,23.88,25,23.88S50,37.068,50,23.88,38.806,0,25,0ZM37.014,18c.017.25.017.512.017.768A17.107,17.107,0,0,1,19.392,35.607a18.182,18.182,0,0,1-9.52-2.654,13.905,13.905,0,0,0,1.5.075,12.81,12.81,0,0,0,7.7-2.527,6.171,6.171,0,0,1-5.792-4.1,7.085,7.085,0,0,0,2.8-.107A6.25,6.25,0,0,1,12.5,24.231,5.755,5.755,0,0,1,11.1,20.48V20.4a6.421,6.421,0,0,0,2.8.752,6.03,6.03,0,0,1-2.027-2.132,5.714,5.714,0,0,1-.735-2.793,5.606,5.606,0,0,1,.843-2.985,17.467,17.467,0,0,0,5.7,4.393,18.244,18.244,0,0,0,7.079,1.8,6.01,6.01,0,0,1,6.055-7.281,6.325,6.325,0,0,1,4.526,1.866A12.6,12.6,0,0,0,39.275,12.6a5.95,5.95,0,0,1-2.723,3.257,12.713,12.713,0,0,0,3.571-.922A12.689,12.689,0,0,1,37.014,18Z" fill="#4c001f"/>
</svg>
